<?xml version="1.0" encoding="UTF-8"?>
<svg width="2400" height="1e3" enable-background="new 0 0 1000 1000" version="1.1" viewBox="0 0 2400 1e3" xml:space="preserve" xmlns="http://www.w3.org/2000/svg" xmlns:cc="http://creativecommons.org/ns#" xmlns:dc="http://purl.org/dc/elements/1.1/" xmlns:rdf="http://www.w3.org/1999/02/22-rdf-syntax-ns#">
<metadata> Svg Vector Icons : http://www.onlinewebfonts.com/icon <rdf:RDF><cc:Work rdf:about=""><dc:format>image/svg+xml</dc:format><dc:type rdf:resource="http://purl.org/dc/dcmitype/StillImage"/><dc:title/></cc:Work></rdf:RDF></metadata>

<text transform="matrix(1.4 0 0 1.4 -1876 -1546)" font-family="serif" font-size="40px" style="line-height:1.25;shape-inside:url(#rect857);white-space:pre" xml:space="preserve"><tspan x="152.94141" y="791.09113"><tspan font-family="'Nirmala UI'" font-size="667px" font-weight="bold">C#</tspan></tspan></text><g font-family="'Microsoft PhagsPa'"><text transform="matrix(1.05 0 0 1.05 -1347 -1293)" font-size="333px" letter-spacing="30px" style="line-height:1.05;shape-inside:url(#rect863);white-space:pre" xml:space="preserve"><tspan x="945.88281" y="419.85928"><tspan font-family="'Nirmala UI'" font-size="333px" font-weight="bold">struct
</tspan></tspan><tspan x="945.88281" y="769.85891"><tspan font-family="'Nirmala UI'" font-size="333px" font-weight="bold">class</tspan></tspan></text><text font-size="40px" style="line-height:1.25;shape-inside:url(#rect869);white-space:pre" xml:space="preserve"/><text x="1820.176" y="-429.2554" font-size="40px" style="line-height:1.25" xml:space="preserve"><tspan x="1820.176" y="-429.2554">`</tspan></text><text transform="matrix(1.05 0 0 1.05 240 256)" font-size="333px" letter-spacing="30px" style="line-height:1.25;shape-inside:url(#rect863-9);white-space:pre" xml:space="preserve"/><text transform="matrix(1.05 0 0 1.05 89.8 232)" font-size="254px" letter-spacing="30px" style="line-height:1.05;shape-inside:url(#rect863-4);white-space:pre" xml:space="preserve"><tspan x="945.88281" y="356.6277"><tspan font-family="'Nirmala UI'" font-size="254px" font-weight="bold">Node.js</tspan></tspan></text><text font-size="40px" style="line-height:1.25;shape-inside:url(#rect1021);white-space:pre" xml:space="preserve"/></g><g transform="matrix(1.37 0 0 1.37 196 163)">
	
		
			<path d="m512 319c-0.085-2.28-0.384-4.56-1.22-6.76l-64-171c-3.12-8.32-11.1-13.8-20-13.8h-64c-11.8 0-21.3 9.56-21.3 21.3s9.54 21.3 21.3 21.3h49.2l48 128h-97.2c-11.8 0-21.3 9.56-21.3 21.3v42.7h-171v-42.7c0-11.8-9.54-21.3-21.3-21.3h-97.2l48-128h49.2c11.8 0 21.3-9.56 21.3-21.3s-9.54-21.3-21.3-21.3h-64c-8.9 0-16.9 5.52-20 13.8l-64 171c-0.811 2.2-1.13 4.48-1.2 6.76-0.021 0.256-0.149 0.47-0.149 0.726v171c0 11.8 9.54 21.3 21.3 21.3h469c11.8 0 21.3-9.56 21.3-21.3v-171c1e-3 -0.256-0.148-0.47-0.148-0.726z"/>
			<path d="m192 107c5.46 0 10.9-2.09 15.1-6.25l27.6-27.6v205c0 11.8 9.54 21.3 21.3 21.3s21.3-9.56 21.3-21.3v-204l27.6 27.6c4.16 4.16 9.62 6.25 15.1 6.25s10.9-2.09 15.1-6.25c8.34-8.34 8.34-21.8 0-30.2l-64-64c-1.96-1.98-4.33-3.54-6.96-4.63-5.2-2.16-11.1-2.16-16.3 0-2.62 1.09-4.99 2.64-6.96 4.63l-64 64c-8.34 8.34-8.34 21.8 0 30.2 4.16 4.16 9.62 6.25 15.1 6.25z"/>
		
	
</g></svg>
