<?xml version="1.0" encoding="UTF-8"?>
<svg width="300mm" height="300mm" version="1.1" viewBox="0 0 300 300" xmlns="http://www.w3.org/2000/svg" xmlns:cc="http://creativecommons.org/ns#" xmlns:dc="http://purl.org/dc/elements/1.1/" xmlns:rdf="http://www.w3.org/1999/02/22-rdf-syntax-ns#" xmlns:xlink="http://www.w3.org/1999/xlink">
 <defs>
  <linearGradient id="linearGradient65" x1=".353" x2="255" y1="255" y2=".353" gradientTransform="matrix(1.19 0 0 1.2 -217 -50.2)" gradientUnits="userSpaceOnUse">
   <stop stop-color="#5f5fd3" offset="0"/>
   <stop stop-color="#ff5555" offset="1"/>
  </linearGradient>
  <linearGradient id="linearGradient67" x1="122" x2="126" y1="231" y2="12.5" gradientTransform="matrix(1.19 0 0 1.2 -216 -49.3)" gradientUnits="userSpaceOnUse">
   <stop stop-color="#1a1a1a" offset="0"/>
   <stop stop-color="#808080" offset="1"/>
  </linearGradient>
 </defs>
 <metadata>
  <rdf:RDF>
   <cc:Work rdf:about="">
    <dc:format>image/svg+xml</dc:format>
    <dc:type rdf:resource="http://purl.org/dc/dcmitype/StillImage"/>
    <dc:title/>
   </cc:Work>
  </rdf:RDF>
 </metadata>
 <g transform="translate(216 47.6)">
  <g>
   <path d="m-146 192c-15.5-1.9-27.4-7.57-40.6-19.3-3.43-3.05-11.9-12.3-13.6-14.8-11.6-17.5-14.6-49.2-7.46-76.7 3.49-13.4 9.57-26.5 16.4-35.4 12.2-15.9 32.6-28.8 53.4-32.6 3.57-0.657 5.72-0.883 18.5-0.771 16.4 5.99e-4 17.4 0.0833 24.6 2.25 6.66 2 10.3 3.51 10.1 4.21-0.0619 0.277-1.38 11.7-2.92 25.4-1.54 13.7-2.86 25-2.91 25.2-0.0736 0.219-0.851 0.203-2.56-0.054-1.35-0.203-4.93-0.537-7.94-0.742-15.7-1.07-28.4 2.61-39.3 11.4-3.62 2.93-5.24 4.88-6.87 8.29-1.66 3.45-2.68 6.5-3.61 10.7-0.559 2.53-0.652 3.83-0.642 8.9 0.013 6.9 0.433 9.08 2.63 13.6 4.61 9.57 14.4 14.1 28.7 13.2 8.53-0.521 17.2-2.83 27.8-7.42 2.68-1.16 4.94-2.04 5.02-1.96 0.125 0.126-3.74 51.1-4.17 54.9l-0.167 1.51-5.4 1.96c-11.2 4.08-20.5 6.48-30 7.77-4.85 0.657-15 0.828-19.1 0.322zm91.9-4.65c-16.7-2.1-30.5-3.86-30.5-3.91-0.0515-0.0519 10.8-37 24.2-82.2 13.4-45.2 24.3-82.4 24.3-82.6 0.0232-0.285 0.0602-0.519 0.0823-0.519s15.4-0.601 34.3-1.33c18.8-0.734 34.3-1.29 34.3-1.23 0.059 0.0595 7.13 24.6 15.7 54.6 8.58 30 16.5 57.7 17.6 61.5 1.11 3.83 2.29 7.9 2.62 9.04 3.4 11.7 11.8 41.5 11.7 41.6-0.155 0.156-58.8 8.4-58.9 8.28-0.057-0.0575-2-6.29-4.32-13.9l-4.21-13.8-14-0.26c-7.72-0.143-14.1-0.178-14.2-0.0769-0.0999 0.101-1.09 4.02-2.19 8.71-5.1 21.6-4.65 19.9-5.35 19.9-0.351-0.0195-14.3-1.75-31.1-3.85zm63.1-62.2c-0.0822-0.285-1.95-9.39-4.16-20.2-2.2-10.8-4.07-20-4.16-20.2-0.22-0.766-3.82-0.766-4.04 0-0.0823 0.285-1.89 9.33-4.01 20.1-2.12 10.8-3.92 19.8-4.01 20.1-0.159 0.551-0.15 0.551 15.4 0.756 4.73 0.0619 5.08 0.0296 4.94-0.452z" fill="url(#linearGradient67)" stroke-width=".295"/>
   <path d="m-203 254c-0.0526-0.053-0.788-0.166-1.63-0.251-0.846-0.0849-1.83-0.35-2.2-0.59-0.363-0.24-0.792-0.444-0.955-0.454-0.623-0.0382-1.33-0.359-1.33-0.606 0-0.142-0.295-0.352-0.656-0.467-2.75-0.88-5.33-6.16-5.29-10.8 0.0154-1.84 6.02-78.6 6.42-82.1l0.189-1.64 0.483 0.743c0.265 0.409 0.96 1.28 1.54 1.93 0.584 0.654 2.01 2.59 3.18 4.31 3.67 5.4 4.36 6.25 8.67 10.6 3.03 3.03 5.11 4.81 7.45 6.39 1.78 1.2 3.76 2.63 4.39 3.16 0.63 0.539 1.96 1.39 2.95 1.88 0.992 0.497 2.47 1.31 3.28 1.81 0.811 0.496 1.84 1.04 2.29 1.22 0.446 0.175 0.815 0.472 0.819 0.66 5e-3 0.188-0.415 5.66-0.932 12.2-0.517 6.5-0.874 11.9-0.794 12 0.0801 0.0809 44.8-3.73 99.3-8.48 54.5-4.74 99.9-8.62 101-8.62s2.54-0.122 3.63-0.272c1.09-0.15 3.5-0.425 5.37-0.612 1.87-0.187 4.98-0.527 6.93-0.757 1.95-0.23 4.93-0.563 6.64-0.74 1.7-0.177 4.23-0.446 5.6-0.598 2.37-0.261 5.96-0.646 9.84-1.05l1.73-0.182-0.174 1.29c-0.096 0.709-0.585 6.17-1.09 12.1-0.502 5.97-1.04 11.1-1.19 11.4-0.153 0.284-0.282 0.752-0.287 1.04-0.0745 4.05-7.23 11.8-11.9 12.9-0.808 0.189-1.73 0.453-2.06 0.587-0.324 0.134-56.6 5.14-125 11.1-68.5 5.99-125 10.9-125 11-0.361 0.0546-0.7 0.0561-0.752 2e-3zm274-135c-0.21-0.448-0.911-2.75-1.56-5.13-0.646-2.37-1.37-4.71-1.6-5.2-0.236-0.491-0.9-2.7-1.48-4.91-0.576-2.21-1.22-4.35-1.44-4.76-0.216-0.409-0.889-2.62-1.5-4.91-0.608-2.29-1.21-4.3-1.34-4.46-0.128-0.164-0.783-2.3-1.46-4.76-0.674-2.45-1.41-4.86-1.63-5.35-0.221-0.491-0.885-2.7-1.48-4.91-0.591-2.21-1.26-4.42-1.49-4.91-0.231-0.491-0.829-2.43-1.33-4.31-0.501-1.88-1.1-3.82-1.33-4.31-0.231-0.491-0.9-2.7-1.49-4.91-0.587-2.21-1.17-4.15-1.3-4.31-0.129-0.164-0.798-2.37-1.49-4.91-0.69-2.53-1.36-4.75-1.49-4.91-0.128-0.168-0.774-2.31-1.43-4.76-0.66-2.45-1.38-4.79-1.59-5.2-0.216-0.409-0.631-1.68-0.923-2.82-0.292-1.14-0.71-2.29-0.929-2.55-0.337-0.394-0.163-3.16 1.12-17.8 0.833-9.52 1.46-17.4 1.4-17.4-0.0645-0.0616-44.4 3.33-98.5 7.53l-98.4 7.64c-19.9 4.5-31.6 16.9-41.6 27.4-2.25 2.45-5.52 5.72-5.61 5.6-0.14-0.191 4.28-53.8 4.54-55.1 1.1-5.46 8.26-13.2 12.2-13.2 0.284-1.28e-4 0.516-0.121 0.516-0.268 0-0.275 2.53-0.666 5.16-0.797 0.811-0.0404 57.2-4.36 125-9.59 125-9.65 126-9.7 128-8.72 0.365 0.201 0.664 0.292 0.664 0.203 0-0.0896 0.531 0.175 1.18 0.588 0.649 0.413 1.18 0.668 1.18 0.566 0-0.102 0.73 0.563 1.62 1.48 0.892 0.914 1.62 1.87 1.62 2.11 0 0.249 0.124 0.452 0.275 0.452 0.245 0 0.741 1.11 0.667 1.49-0.0159 0.0818 0.143 0.416 0.353 0.743 1.22 1.89 1.75-5.47-6.03 82.7-7.64 86.5-6.8 77.7-7.3 76.6z" fill="url(#linearGradient65)" stroke-width=".296"/>
  </g>
 </g>
</svg>
